<svg width="703" height="129" viewBox="0 0 703 129" version="1.1" xmlns="http://www.w3.org/2000/svg"><title>logo</title><g id="Page-1" stroke="none" stroke-width="1" fill="none" fill-rule="evenodd"><g id="logo-aka" transform="translate(0 -710)" fill="#214FFF" fill-rule="nonzero"><g id="logo" transform="translate(0 710)"><path d="M185.2 76.6c-7.2 0-12.8-5.8-12.8-13 0-7.1 5.6-13 12.8-13 7.2 0 12.8 5.9 12.8 13 0 7.2-5.6 13-12.8 13zm0-46.6C165.7 30 150 45 150 63.8a34.2 34.2 0 0 0 35 33.4c19.6 0 35.2-14.8 35.2-33.4a34.4 34.4 0 0 0-35-33.8zm-74 46.6c-7.2 0-12.8-5.8-12.8-13 0-7.1 5.6-13 12.8-13 7.1 0 12.8 5.9 12.8 13 0 7.2-5.7 13-12.8 13zm0-46.6C91.7 30 76 45 76 63.8a34.2 34.2 0 0 0 35 33.4c19.5 0 35.2-14.8 35.2-33.4a34.4 34.4 0 0 0-35-33.8zM35 76.7c-7 0-12.7-5.9-12.7-13 0-7.2 5.6-13.1 12.8-13.1 7.2 0 12.8 5.9 12.8 13 0 7.2-5.6 13.1-12.8 13.1H35zM67 32H51a3 3 0 0 0-3 3v1.9c-2.7-4-9.2-6.8-16.9-6.8C15 30 0 42.5 0 63.4s15 33.2 32 33.2c7.4 0 13.3-2.3 16-5.8v7c0 6.8-4.3 11.2-12.4 11.2-9.2 0-10.5-5.6-11-8.2-.3-1.2-.8-2.7-3.2-2.7h-17a2.8 2.8 0 0 0-2.7 2.8v1c0 9 4.3 16 10.7 20.3a40.1 40.1 0 0 0 22.8 5.9c21 0 34.7-9.9 34.7-28.5V34.8c0-1.6-1.3-3-3-3l.1.2zm601.8 23c-2.4-.8-3.2-2.1-3.2-3.4 0-3 3.6-4 7.4-4a37 37 0 0 1 15 3.9c1.2.6 2.3 1.5 4.2 1.5 1 0 1.6-.2 2.3-1.3l5.4-9c.7-1 1-1.8 1-2.6 0-.9-.3-1.5-2.1-3a39.6 39.6 0 0 0-24.5-7.1c-18 0-29.6 8.4-29.6 22.4 0 24.4 35.4 16.3 35.4 24.2 0 2.6-3.5 3.6-7.6 3.6-5.1 0-10.1-1.7-14-4-3-1.7-4-3.2-6-3.2-.7 0-1.6.1-2.3 1l-5.9 8c-1.2 1.6-1.6 2.3-1.6 3.7 0 1.5.5 2.3 2.3 3.7 5.7 4.5 15.3 8 27.8 8 20.7 0 29.4-9.8 29.4-21.7 0-20.1-24.7-18-33.4-20.8v.1zm-135-25c-9.3 0-15.2 3.2-19 6.9v-2.3c0-1.6-1.6-2.7-3.1-2.7h-16.2c-1.6 0-3 1.3-3 3v57.4c0 1.7 1.4 3 3 3h16.2c1.5 0 3-1.2 3-2.7v-29c0-7.9 5-13.1 12.5-13.1 7.4 0 12.1 5.2 12.1 13v29.1c0 1.5 1.6 2.7 3 2.7h16.1c1.5 0 3-1.2 3-2.7V61.7c0-17.1-7.6-31.7-27.6-31.7zM473.4 0c-7.566 0-13.7 6.134-13.7 13.7 0 7.566 6.134 13.7 13.7 13.7 7.566 0 13.7-6.134 13.7-13.7 0-7.566-6.134-13.7-13.7-13.7zM602 76.7c-7.1 0-12.7-5.9-12.7-13 0-7.2 5.6-13.1 12.8-13.1 7.1 0 12.8 5.9 12.8 13 0 7.2-5.7 13.1-12.8 13.1h-.1zM634 32h-16a3 3 0 0 0-3 3v1.9c-2.7-4-9.2-6.8-16.9-6.8C582 30 567 42.5 567 63.4s15 33.2 32 33.2c7.4 0 13.3-2.3 16-5.8v7c0 6.8-4.3 11.2-12.4 11.2-9.2 0-10.5-5.6-11-8.2-.3-1.2-.8-2.7-3.2-2.7h-17a2.8 2.8 0 0 0-2.8 2.8v1c0 9 4.4 16 10.8 20.3a40.1 40.1 0 0 0 22.8 5.9c21 0 34.7-9.9 34.7-28.5V34.8c0-1.6-1.3-3-3-3l.1.2zM373.6 74.3a3.3 3.3 0 0 0-2.8-1.4c-1 0-1.8.4-3.1 1.3a7.7 7.7 0 0 1-4.7 1.5c-1.2 0-5-.1-5-5.9v-19h17.8c1.6 0 3-1.4 3-3v-13a3 3 0 0 0-3-3H358V16.4c0-1.7-1.3-3-3-3h-16a3 3 0 0 0-3 3V32h-8c-1.7 0-3 1.3-3 3v12.9a3 3 0 0 0 3 3h7.8v21.3c0 18.7 12.3 24.5 24 24.5 6.7 0 16-2 20.6-7a4 4 0 0 0 1.3-2.8 5 5 0 0 0-1-2.6l-7.1-10zm-114.3 2.4c-7.1 0-12.8-5.9-12.8-13 0-7.2 5.7-13.1 12.8-13.1 7.2 0 12.9 5.9 12.9 13 0 7.2-5.7 13.1-12.9 13.1zm32-71h-16a3 3 0 0 0-3 2.9v27.8c-2.7-3.5-8.7-6.4-16.5-6.4a32 32 0 0 0-31.5 33.4c0 20.9 15.5 33.8 31.6 33.8 7.5 0 13.2-2.8 16.4-6.8v2c0 1.6 1.3 2.9 3 2.9h16c1.6 0 2.9-1.3 2.9-3V8.6c0-1.7-1.3-3-3-3l.1.1zM427 30c-9.4 0-15.2 3.2-19 6.9V8.3c0-1.5-1.6-2.7-3.2-2.7h-16.1c-1.7 0-3 1.3-3 3v83.7c0 1.7 1.3 3 3 3h16.1c1.6 0 3.1-1.2 3.1-2.7v-29c0-7.9 5-13.1 12.4-13.1 7.5 0 12.2 5.2 12.2 13v29.1c0 1.5 1.5 2.7 3 2.7h16c1.6 0 3.2-1.2 3.2-2.7V61.7C454.7 44.6 447 30 427 30zm54.4 1.9h-16.1a3 3 0 0 0-3 3v57.3c0 1.7 1.3 3 3 3h16.1a3 3 0 0 0 3-3V34.8c0-1.6-1.3-3-3-3v.1z" id="Shape"/></g></g></g></svg>